<?xml version="1.0" encoding="UTF-8" standalone="no"?>
<!-- Created with Inkscape (http://www.inkscape.org/) -->
<svg xmlns:dc="http://purl.org/dc/elements/1.1/" xmlns:cc="http://creativecommons.org/ns#" xmlns:rdf="http://www.w3.org/1999/02/22-rdf-syntax-ns#" xmlns:svg="http://www.w3.org/2000/svg" xmlns="http://www.w3.org/2000/svg" xmlns:sodipodi="http://sodipodi.sourceforge.net/DTD/sodipodi-0.dtd" xmlns:inkscape="http://www.inkscape.org/namespaces/inkscape" xmlns:ns1="http://sozi.baierouge.fr" version="1.0" width="1678.4556" height="1755.988" id="svg2" sodipodi:version="0.32" inkscape:version="0.46" sodipodi:docname="greendino-remix.svg" inkscape:output_extension="org.inkscape.output.svg.inkscape" xmlns:xlink="http://www.w3.org/1999/xlink">
  <metadata id="metadata2493">
    <rdf:RDF>
      <cc:Work rdf:about="">
        <dc:format>image/svg+xml</dc:format>
        <dc:type rdf:resource="http://purl.org/dc/dcmitype/StillImage"/>
      </cc:Work>
    </rdf:RDF>
  </metadata>
  <sodipodi:namedview inkscape:window-height="1006" inkscape:window-width="1676" inkscape:pageshadow="2" inkscape:pageopacity="0.0" guidetolerance="10.0" gridtolerance="10.0" objecttolerance="10.0" borderopacity="1.0" bordercolor="#666666" pagecolor="#ffffff" id="base" showgrid="false" inkscape:zoom="0.29598719" inkscape:cx="839.22778" inkscape:cy="877.99402" inkscape:window-x="4" inkscape:window-y="0" inkscape:current-layer="g3389"/>
  <defs id="defs4">
    <inkscape:perspective sodipodi:type="inkscape:persp3d" inkscape:vp_x="0 : 877.99402 : 1" inkscape:vp_y="0 : 1000 : 0" inkscape:vp_z="1678.4556 : 877.99402 : 1" inkscape:persp3d-origin="839.22778 : 585.32935 : 1" id="perspective2495"/>
    <filter height="1.5629627" y="-0.2814813" width="1.4445535" x="-0.22227675" id="filter3373">
      <feGaussianBlur id="feGaussianBlur3375" stdDeviation="110.39333" inkscape:collect="always"/>
    </filter>
    <filter height="1.3289888" y="-0.1644944" width="1.8872728" x="-0.44363639" id="filter3385">
      <feGaussianBlur id="feGaussianBlur3387" stdDeviation="21.013345" inkscape:collect="always"/>
    </filter>
    <filter height="1.291" y="-0.1455" width="1.2297934" x="-0.11489669" id="filter3413">
      <feGaussianBlur id="feGaussianBlur3415" stdDeviation="57.063223" inkscape:collect="always"/>
    </filter>
  </defs>
  <g transform="translate(416.418,914.99245)" id="layer1">
    <g id="g3389">
      <path d="M 845.32788,184.64149 C 821.00343,185.06833 865.74483,184.71214 875.53555,184.89182 C 908.37658,185.13602 943.23926,184.931 971.44088,165.50754 C 999.28622,148.67532 1024.125,127.9596 1053.2165,113.18839 C 1078.2325,88.593312 1080.7882,49.032797 1103.5968,21.558561 C 1121.2184,-9.70765 1141.0244,-39.861362 1151.993,-74.579988 C 1171.9899,-107.38181 1170.8795,-147.83639 1167.4802,-184.73903 C 1165.2062,-220.37518 1142.9113,-248.1964 1119.2116,-272.57981 C 1101.7023,-289.56692 1088.5727,-346.77248 1129.8274,-332.47286 C 1156.4704,-317.74164 1178.7404,-293.60675 1197.1271,-269.156 C 1206.3497,-246.82948 1214.236,-223.72515 1227.588,-203.2364 C 1254.9135,-158.29591 1259.9663,-102.83164 1253.5372,-51.567804 C 1236.0525,-21.311966 1241.8434,18.102 1217.7978,45.327035 C 1197.4561,77.231002 1169.8922,103.27119 1148.2988,134.24219 C 1129.6613,152.58033 1115.055,175.07861 1092.8241,189.44963 C 1063.4771,205.76631 1033.7849,221.52472 1003.8508,236.70723 C 949.87544,261.29304 893.33387,282.68313 834.40171,291.03498 C 815.85922,284.2115 837.58952,253.45613 834.64896,236.19081 C 838.67024,219.03151 840.87775,201.58987 845.32788,184.64149 z" id="path3239" style="fill:#72aa63;fill-opacity:0.96078431;fill-rule:evenodd;stroke:#000000;stroke-width:12;stroke-linecap:round;stroke-linejoin:round;stroke-miterlimit:4;stroke-dasharray:none;stroke-opacity:1"/>
      <path d="M 862.85716,146.6479 A 617.14288,585.71429 0 1 1 -371.4286,146.6479 A 617.14288,585.71429 0 1 1 862.85716,146.6479 z" transform="matrix(1.0437652,0,0,1.1144063,-12.182311,-83.920299)" id="path2453" style="opacity:1;fill:#81b771;fill-opacity:0.93725490000000000;fill-rule:evenodd;stroke:#000000;stroke-width:11.12648678000000046;stroke-linecap:round;stroke-linejoin:round;stroke-miterlimit:4;stroke-dasharray:none;stroke-opacity:1;"/>
      <path d="M 362.85714,666.6479 C 393.28564,457.5032 529.8143,408.3508 605.71429,549.50504 L 664.39049,687.82091 C 597.85245,778.3448 474.054,809.92415 358.67621,807.82091 L 362.85714,666.6479 z" id="path3816" style="fill:#72aa63;fill-opacity:0.96078430999999997;fill-rule:evenodd;stroke:#000000;stroke-width:12;stroke-linecap:round;stroke-linejoin:round;stroke-miterlimit:4;stroke-dasharray:none;stroke-opacity:1"/>
      <path d="M -314.48272,408.00249 L -6.5975396,559.7459 L 367.26303,583.93687 L 618.47971,416.4624 L 763.11541,174.88942 L 796.10311,-102.20724 L 811.49736,-212.16623 L 855.48096,-113.20314 L 877.47276,40.739451 L 870.87522,183.68614 L 844.48506,278.25087 L 805.40505,390.57746 L 719.13181,500.36804 L 664.15231,559.7459 L 565.18922,634.51801 L 382.65729,707.09095 L 213.32044,729.08274 L -26.390158,667.50571 L -153.94259,588.33523 L -290.29174,449.7869 L -314.48272,408.00249 z" id="path3271" style="fill:#5e954e;fill-opacity:0.9372549;fill-rule:evenodd;stroke:none;stroke-width:1px;stroke-linecap:butt;stroke-linejoin:miter;stroke-opacity:1;filter:url(#filter3413)"/>
      <path d="M 862.85716,146.6479 A 617.14288,585.71429 0 1 1 -371.4286,146.6479 A 617.14288,585.71429 0 1 1 862.85716,146.6479 z" transform="matrix(1.0437652,0,0,1.1144063,-12.18231,-83.9203)" id="path3820" style="opacity:1;fill:#81b771;fill-opacity:0.93725490000000000;fill-rule:evenodd;stroke:#000000;stroke-width:11.12648678000000046;stroke-linecap:round;stroke-linejoin:round;stroke-miterlimit:4;stroke-dasharray:none;stroke-opacity:1"/>
      <path d="M -328.57143,-236.20925 C -306.84246,-238.41679 -272.26221,-213.51124 -257.14286,-193.3521 C -244.24672,-176.15725 -216.18389,-178.11137 -197.14286,-170.49496 C -138.40739,-159.87477 -70.422095,-154.69789 -22.857143,-113.3521 C -4.4092555,-94.904216 13.021785,-75.879961 22.857143,-56.209246 C 29.466919,-42.989694 61.843958,-16.715838 74.285714,-10.49496 C 95.063302,-0.10616627 109.41624,17.573386 134.28571,23.790754 C 165.216,31.523325 196.33017,58.076468 225.71429,58.076468 C 250.11581,58.076468 266.84081,65.851163 291.42857,60.933611 C 333.91817,56.583732 346.51582,40.476752 380.87146,21.293946 C 382.07613,20.691608 421.51119,-29.450572 422.46357,-30.402953 C 475.07355,-60.606135 450.44078,-76.363834 508.57143,-93.352103 C 546.93877,-137.5049 592.45902,-155.51474 651.42857,-161.92353 C 667.04968,-161.92353 685.38033,-176.20925 702.85714,-176.20925 C 715.43224,-176.20925 749.58974,-195.67738 760,-201.92353 C 779.94375,-213.88978 800.5324,-214.41691 811.42857,-236.20925 C 821.54168,-256.43546 828.57143,-269.97004 828.57143,-293.3521 C 828.57143,-309.22555 831.42857,-327.79199 831.42857,-344.78067 C 831.42857,-370.23332 811.42857,-367.36603 811.42857,-390.49496 C 811.42857,-405.1518 850.23676,-420.73172 860,-430.49496 C 875.3109,-445.80586 902.669,-461.73539 914.28571,-473.3521 C 927.72688,-486.79327 911.37274,-509.10826 905.71429,-513.3521 C 880.49452,-532.26693 860.16984,-546.35909 837.14286,-564.78067 C 814.60094,-582.81421 785.55935,-579.89688 760,-599.06639 C 755.69002,-602.29888 752.38095,-606.68544 748.57143,-610.49496 C 731.9766,-627.08979 727.56878,-626.48436 734.28571,-653.3521 C 741.41167,-681.85594 769.94392,-705.46692 797.14286,-719.06639 C 801.40203,-721.19598 804.7619,-724.78067 808.57143,-727.63782 C 835.94935,-748.17126 807.22364,-754.69989 791.42857,-770.49496 C 779.4069,-782.51663 750.16244,-783.66864 734.28571,-787.63782 C 714.97516,-792.46546 697.93325,-793.3521 677.14286,-793.3521 C 653.70698,-793.3521 625.71429,-773.85644 625.71429,-801.92353 C 625.71429,-827.52893 623.70395,-846.26095 620,-864.78067 C 618.37602,-872.90059 599.93643,-880.52675 591.42857,-884.78067 C 574.77807,-893.10592 533.74392,-884.78067 514.28571,-884.78067 C 495.32728,-884.78067 486.82466,-869.89917 468.57143,-856.20925 C 450.24489,-842.46434 438.63514,-833.37759 417.14286,-824.78067 C 393.20343,-815.2049 386.98825,-846.89158 380,-856.20925 C 367.1835,-873.29791 352.79109,-887.90202 348.57143,-904.78067 C 346.73686,-912.11897 296.99498,-907.63782 288.57143,-907.63782 C 270.1314,-907.63782 249.83984,-891.00233 234.28571,-884.78067 C 213.43539,-876.44055 176.16059,-849.51269 162.85714,-836.20925 C 143.75566,-817.10776 117.28337,-840.4247 97.142857,-850.49496 C 75.298601,-861.41709 74.814204,-878.21998 48.571429,-884.78067 C 31.823131,-888.96775 8.6283851,-884.78067 -8.5714286,-884.78067 C -28.294438,-884.78067 -48.691393,-869.87555 -68.571429,-861.92353 C -85.920642,-854.98385 -98.889098,-814.93857 -102.85714,-799.06639 C -107.85046,-779.0931 -110.94695,-766.57046 -128.57143,-753.3521 C -148.8824,-738.11887 -175.02133,-739.06639 -202.85714,-739.06639 C -224.12325,-739.06639 -244.57371,-750.49496 -268.57143,-750.49496 C -290.56112,-750.49496 -307.1176,-712.91802 -317.14286,-696.20925 C -325.74443,-681.8733 -322.85714,-664.41482 -322.85714,-647.63782 C -322.85714,-625.20878 -316.19799,-615.28692 -311.42857,-596.20925 C -301.533,-556.62694 -348.0095,-553.68926 -377.14286,-536.20925 C -394.64841,-525.70591 -400.82842,-511.69527 -408.57143,-496.20925 C -418.89439,-475.56333 -383.09453,-444.89937 -371.42857,-439.06639 C -355.84626,-431.27523 -348.30908,-421.66118 -337.14286,-410.49496 C -319.06155,-392.41365 -337.99138,-366.78929 -357.14286,-347.63782 C -384.88045,-319.90022 -374.00354,-304.21632 -360,-276.20925 C -354.45204,-265.11333 -347.41251,-251.80688 -340,-241.92353 C -337.44449,-238.51619 -332.38095,-238.11401 -328.57143,-236.20925 z" id="path3824" style="opacity:1;fill:#81b871;fill-opacity:0.93725490000000000;fill-rule:evenodd;stroke:#000000;stroke-width:12;stroke-linecap:round;stroke-linejoin:round;stroke-miterlimit:4;stroke-dasharray:none;stroke-opacity:1"/>
      <path d="M -328.57143,-236.20925 C -306.84246,-238.41679 -272.26221,-213.51124 -257.14286,-193.3521 C -244.24672,-176.15725 -216.18389,-178.11137 -197.14286,-170.49496 C -138.40739,-159.87477 -70.422095,-154.69789 -22.857143,-113.3521 C -4.4092555,-94.904216 13.021785,-75.879961 22.857143,-56.209246 C 29.466919,-42.989694 61.843958,-16.715838 74.285714,-10.49496 C 95.063302,-0.10616627 109.41624,17.573386 134.28571,23.790754 C 165.216,31.523325 196.33017,58.076468 225.71429,58.076468 C 250.11581,58.076468 266.84081,65.851163 291.42857,60.933611 C 333.91817,56.583732 346.51582,40.476752 380.87146,21.293946 C 382.07613,20.691608 421.51119,-29.450572 422.46357,-30.402953 C 475.07355,-60.606135 450.44078,-76.363834 508.57143,-93.352103 C 546.93877,-137.5049 592.45902,-155.51474 651.42857,-161.92353 C 667.04968,-161.92353 685.38033,-176.20925 702.85714,-176.20925 C 715.43224,-176.20925 749.58974,-195.67738 760,-201.92353 C 779.94375,-213.88978 800.5324,-214.41691 811.42857,-236.20925 C 821.54168,-256.43546 828.57143,-269.97004 828.57143,-293.3521 C 828.57143,-309.22555 831.42857,-327.79199 831.42857,-344.78067 C 831.42857,-370.23332 811.42857,-367.36603 811.42857,-390.49496 C 811.42857,-405.1518 850.23676,-420.73172 860,-430.49496 C 875.3109,-445.80586 902.669,-461.73539 914.28571,-473.3521 C 927.72688,-486.79327 911.37274,-509.10826 905.71429,-513.3521 C 880.49452,-532.26693 860.16984,-546.35909 837.14286,-564.78067 C 814.60094,-582.81421 785.55935,-579.89688 760,-599.06639 C 755.69002,-602.29888 752.38095,-606.68544 748.57143,-610.49496 C 731.9766,-627.08979 727.56878,-626.48436 734.28571,-653.3521 C 741.41167,-681.85594 769.94392,-705.46692 797.14286,-719.06639 C 801.40203,-721.19598 804.7619,-724.78067 808.57143,-727.63782 C 835.94935,-748.17126 807.22364,-754.69989 791.42857,-770.49496 C 779.4069,-782.51663 750.16244,-783.66864 734.28571,-787.63782 C 714.97516,-792.46546 697.93325,-793.3521 677.14286,-793.3521 C 653.70698,-793.3521 625.71429,-773.85644 625.71429,-801.92353 C 625.71429,-827.52893 623.70395,-846.26095 620,-864.78067 C 618.37602,-872.90059 599.93643,-880.52675 591.42857,-884.78067 C 574.77807,-893.10592 533.74392,-884.78067 514.28571,-884.78067 C 495.32728,-884.78067 486.82466,-869.89917 468.57143,-856.20925 C 450.24489,-842.46434 438.63514,-833.37759 417.14286,-824.78067 C 393.20343,-815.2049 386.98825,-846.89158 380,-856.20925 C 367.1835,-873.29791 352.79109,-887.90202 348.57143,-904.78067 C 346.73686,-912.11897 296.99498,-907.63782 288.57143,-907.63782 C 270.1314,-907.63782 249.83984,-891.00233 234.28571,-884.78067 C 213.43539,-876.44055 176.16059,-849.51269 162.85714,-836.20925 C 143.75566,-817.10776 117.28337,-840.4247 97.142857,-850.49496 C 75.298601,-861.41709 74.814204,-878.21998 48.571429,-884.78067 C 31.823131,-888.96775 8.6283851,-884.78067 -8.5714286,-884.78067 C -28.294438,-884.78067 -48.691393,-869.87555 -68.571429,-861.92353 C -85.920642,-854.98385 -98.889098,-814.93857 -102.85714,-799.06639 C -107.85046,-779.0931 -110.94695,-766.57046 -128.57143,-753.3521 C -148.8824,-738.11887 -175.02133,-739.06639 -202.85714,-739.06639 C -224.12325,-739.06639 -244.57371,-750.49496 -268.57143,-750.49496 C -290.56112,-750.49496 -307.1176,-712.91802 -317.14286,-696.20925 C -325.74443,-681.8733 -322.85714,-664.41482 -322.85714,-647.63782 C -322.85714,-625.20878 -316.19799,-615.28692 -311.42857,-596.20925 C -301.533,-556.62694 -348.0095,-553.68926 -377.14286,-536.20925 C -394.64841,-525.70591 -400.82842,-511.69527 -408.57143,-496.20925 C -418.89439,-475.56333 -383.09453,-444.89937 -371.42857,-439.06639 C -355.84626,-431.27523 -348.30908,-421.66118 -337.14286,-410.49496 C -319.06155,-392.41365 -337.99138,-366.78929 -357.14286,-347.63782 C -384.88045,-319.90022 -374.00354,-304.21632 -360,-276.20925 C -354.45204,-265.11333 -347.41251,-251.80688 -340,-241.92353 C -337.44449,-238.51619 -332.38095,-238.11401 -328.57143,-236.20925 z" id="path3227" style="opacity:1;fill:#81b871;fill-opacity:0.9372549;fill-rule:evenodd;stroke:#000000;stroke-width:12;stroke-linecap:round;stroke-linejoin:round;stroke-miterlimit:4;stroke-dasharray:none;stroke-opacity:1"/>
      <path d="M -314.48272,408.00249 L -6.5975396,559.7459 L 367.26303,583.93687 L 618.47971,416.4624 L 763.11541,174.88942 L 796.10311,-102.20724 L 811.49736,-212.16623 L 855.48096,-113.20314 L 877.47276,40.739451 L 870.87522,183.68614 L 844.48506,278.25087 L 805.40505,390.57746 L 719.13181,500.36804 L 664.15231,559.7459 L 565.18922,634.51801 L 382.65729,707.09095 L 213.32044,729.08274 L -26.390158,667.50571 L -153.94259,588.33523 L -290.29174,449.7869 L -314.48272,408.00249 z" id="path3822" style="fill:#5e954e;fill-opacity:0.93725490000000000;fill-rule:evenodd;stroke:none;stroke-width:1px;stroke-linecap:butt;stroke-linejoin:miter;stroke-opacity:1;filter:url(#filter3413)"/>
      <path d="M 217.14285,-440.49496 A 94.285713,84.285713 0 1 1 28.571426,-440.49496 A 94.285713,84.285713 0 1 1 217.14285,-440.49496 z" id="path3229" style="opacity:1;fill:#f1f1f1;fill-opacity:1;fill-rule:evenodd;stroke:#000000;stroke-width:12;stroke-linecap:round;stroke-linejoin:round;stroke-miterlimit:4;stroke-dasharray:none;stroke-opacity:1"/>
      <path d="M 217.14285,-440.49496 A 94.285713,84.285713 0 1 1 28.571426,-440.49496 A 94.285713,84.285713 0 1 1 217.14285,-440.49496 z" transform="translate(308.57146,-32.857141)" id="path3231" style="opacity:1;fill:#f1f1f1;fill-opacity:1;fill-rule:evenodd;stroke:#000000;stroke-width:12;stroke-linecap:round;stroke-linejoin:round;stroke-miterlimit:4;stroke-dasharray:none;stroke-opacity:1"/>
      <path d="M -117.14286,740.93361 C -8.57143,809.1924 89.895223,850.50512 208.57143,829.50504 L 220,703.79075 C 249.89861,532.57943 45.703208,395.0507 -74.285714,609.50504 L -117.14286,740.93361 z" id="path3814" style="fill:#81b871;fill-opacity:0.93725490000000000;fill-rule:evenodd;stroke:#000000;stroke-width:12;stroke-linecap:round;stroke-linejoin:round;stroke-miterlimit:4;stroke-dasharray:none;stroke-opacity:1;opacity:1"/>
      <path d="M -117.14286,740.93361 C -8.57143,809.1924 89.895223,850.50512 208.57143,829.50504 L 220,703.79075 C 249.89861,532.57943 45.703208,395.0507 -74.285714,609.50504 L -117.14286,740.93361 z" id="path3233" style="fill:#81b871;fill-opacity:0.93725490000000000;fill-rule:evenodd;stroke:#000000;stroke-width:12;stroke-linecap:round;stroke-linejoin:round;stroke-miterlimit:4;stroke-dasharray:none;stroke-opacity:1;opacity:1"/>
      <path d="M 362.85714,666.6479 C 393.28564,457.5032 529.8143,408.3508 605.71429,549.50504 L 664.39049,687.82091 C 597.85245,778.3448 474.054,809.92415 358.67621,807.82091 L 362.85714,666.6479 z" id="path3235" style="fill:#72aa63;fill-opacity:0.96078431;fill-rule:evenodd;stroke:#000000;stroke-width:12;stroke-linecap:round;stroke-linejoin:round;stroke-miterlimit:4;stroke-dasharray:none;stroke-opacity:1"/>
      <path d="M 72.776573,-589.77588 C 105.63801,-595.22165 135.13119,-615.82459 151.15134,-636.42753 C 151.15134,-636.42753 90.331373,-724.50077 59.714111,-707.33804 C 29.096849,-690.17531 72.776573,-589.77588 72.776573,-589.77588 z" id="path3243" style="fill:#f1f1f1;fill-opacity:1;fill-rule:evenodd;stroke:#000000;stroke-width:12;stroke-linecap:round;stroke-linejoin:round;stroke-miterlimit:4;stroke-dasharray:none;stroke-opacity:1"/>
      <path d="M 309.76695,-643.8918 C 338.37996,-623.75846 370.36124,-622.15054 395.60599,-628.96327 C 395.60599,-628.96327 419.28489,-713.00149 390.00779,-724.13263 C 360.73069,-735.26377 309.76695,-643.8918 309.76695,-643.8918 z" id="path3245" style="fill:#f1f1f1;fill-opacity:1;fill-rule:evenodd;stroke:#000000;stroke-width:12;stroke-linecap:round;stroke-linejoin:round;stroke-miterlimit:4;stroke-dasharray:none;stroke-opacity:1"/>
      <path d="M 246.32071,-220.29482 C 267.30871,-206.52496 299.91416,-202.58472 322.82942,-224.02695 C 344.92273,-244.70006 333.84671,-336.08156 298.57056,-339.72304 C 259.66994,-343.73867 226.07089,-233.58038 246.32071,-220.29482 z" id="path3247" style="fill:#f1f1f1;fill-opacity:1;fill-rule:evenodd;stroke:#000000;stroke-width:12;stroke-linecap:round;stroke-linejoin:round;stroke-miterlimit:4;stroke-dasharray:none;stroke-opacity:1"/>
      <path d="M 201.53513,-134.45578 C 202.07657,-126.24603 206.97764,-108.64223 212.73152,-97.134463 C 217.74525,-87.107016 226.00304,-74.532613 233.25825,-67.277407 C 238.28176,-62.2539 256.75718,-69.696542 259.38317,-71.009539 C 263.72469,-73.180297 261.24924,-94.069837 261.24924,-99.000529 C 261.24924,-111.76044 248.48587,-122.8606 242.58858,-130.72365 C 237.57054,-137.41437 229.3214,-145.65218 220.19579,-145.65218 C 208.46884,-145.65218 208.66404,-146.3373 201.53513,-134.45578 z" id="path3249" style="fill:#000000;fill-opacity:1;fill-rule:evenodd;stroke:#000000;stroke-width:12;stroke-linecap:round;stroke-linejoin:round;stroke-miterlimit:4;stroke-dasharray:none;stroke-opacity:1"/>
      <path d="M 375.43061,-152.10721 C 374.88917,-143.89746 369.9881,-126.29366 364.23422,-114.7859 C 359.22049,-104.75845 350.9627,-92.184047 343.70749,-84.928837 C 338.68398,-79.905327 320.20856,-87.347977 317.58257,-88.660967 C 313.24105,-90.831727 315.7165,-111.72127 315.7165,-116.65196 C 315.7165,-129.41187 328.47987,-140.51203 334.37716,-148.37508 C 339.3952,-155.0658 347.64434,-163.30361 356.76995,-163.30361 C 368.4969,-163.30361 368.3017,-163.98873 375.43061,-152.10721 z" id="path3251" style="fill:#000000;fill-opacity:1;fill-rule:evenodd;stroke:#000000;stroke-width:12;stroke-linecap:round;stroke-linejoin:round;stroke-miterlimit:4;stroke-dasharray:none;stroke-opacity:1"/>
      <path d="M 427.08333,-454.40866 A 18.489584,15.104167 0 1 1 390.10417,-454.40866 A 18.489584,15.104167 0 1 1 427.08333,-454.40866 z" id="path3253" style="opacity:1;fill:#000000;fill-opacity:1;fill-rule:evenodd;stroke:#000000;stroke-width:12;stroke-linecap:round;stroke-linejoin:round;stroke-miterlimit:4;stroke-dasharray:none;stroke-opacity:1"/>
      <path d="M 427.08333,-454.40866 A 18.489584,15.104167 0 1 1 390.10417,-454.40866 A 18.489584,15.104167 0 1 1 427.08333,-454.40866 z" transform="translate(-260.15625,30.729177)" id="path3255" style="opacity:1;fill:#000000;fill-opacity:1;fill-rule:evenodd;stroke:#000000;stroke-width:12;stroke-linecap:round;stroke-linejoin:round;stroke-miterlimit:4;stroke-dasharray:none;stroke-opacity:1"/>
      <path d="M -60.628663,774.48081 L 1.6841295,803.11101 C 1.6841295,803.11101 21.615135,733.80195 3.6689772e-08,723.95693 C -21.546563,714.14315 -60.628663,774.48081 -60.628663,774.48081 z" id="path3259" style="fill:#f1f1f1;fill-opacity:1;fill-rule:evenodd;stroke:#000000;stroke-width:12;stroke-linecap:round;stroke-linejoin:round;stroke-miterlimit:4;stroke-dasharray:none;stroke-opacity:1"/>
      <path d="M 5.0729422,804.49275 C 5.0729422,804.49275 24.338411,813.39277 32.861079,815.6227 C 41.383747,817.85263 60.649216,819.64991 60.649216,819.64991 C 60.649216,819.64991 80.580222,750.34085 58.965086,740.49583 C 37.418524,730.68205 5.0729422,804.49275 5.0729422,804.49275 z" id="path3261" style="fill:#f1f1f1;fill-opacity:1;fill-rule:evenodd;stroke:#000000;stroke-width:12;stroke-linecap:round;stroke-linejoin:round;stroke-miterlimit:4;stroke-dasharray:none;stroke-opacity:1"/>
      <path d="M 64.017475,821.33405 C 64.017475,821.33405 88.680184,830.25637 98.883861,831.96367 C 109.08754,833.67097 131.38266,833.12295 131.38266,833.12295 C 131.38266,833.12295 141.20888,762.12977 119.59375,752.28475 C 98.047181,742.47097 64.017475,821.33405 64.017475,821.33405 z" id="path3263" style="fill:#f1f1f1;fill-opacity:1;fill-rule:evenodd;stroke:#000000;stroke-width:12;stroke-linecap:round;stroke-linejoin:round;stroke-miterlimit:4;stroke-dasharray:none;stroke-opacity:1"/>
      <path d="M 549.04678,772.49429 L 610.04169,740.3127 C 610.04169,740.3127 579.4488,687.84494 557.83367,677.99992 C 536.28711,668.18614 549.04678,772.49429 549.04678,772.49429 z" id="path3265" style="fill:#f1f1f1;fill-opacity:1;fill-rule:evenodd;stroke:#000000;stroke-width:12;stroke-linecap:round;stroke-linejoin:round;stroke-miterlimit:4;stroke-dasharray:none;stroke-opacity:1"/>
      <path d="M 488.3618,791.65862 L 548.99047,773.13319 C 548.99047,773.13319 511.66106,717.29717 490.04593,707.45215 C 468.49937,697.63837 488.3618,791.65862 488.3618,791.65862 z" id="path3267" style="fill:#f1f1f1;fill-opacity:1;fill-rule:evenodd;stroke:#000000;stroke-width:12;stroke-linecap:round;stroke-linejoin:round;stroke-miterlimit:4;stroke-dasharray:none;stroke-opacity:1"/>
      <path d="M 423.52281,805.15419 L 485.83561,793.36528 C 485.83561,793.36528 460.29511,732.47687 438.67998,722.63185 C 417.13342,712.81807 423.52281,805.15419 423.52281,805.15419 z" id="path3269" style="fill:#f1f1f1;fill-opacity:1;fill-rule:evenodd;stroke:#000000;stroke-width:12;stroke-linecap:round;stroke-linejoin:round;stroke-miterlimit:4;stroke-dasharray:none;stroke-opacity:1"/>
      <path d="M 89.56507,532.19582 L 163.62849,731.99482 L 161.90609,811.22546 L 201.52141,806.05824 L 203.24381,676.87785 L 177.40774,587.31278 L 146.40445,545.97505 L 89.56507,532.19582 z" id="path3379" style="fill:#69a25a;fill-opacity:0.99608053;fill-rule:evenodd;stroke:none;stroke-width:1px;stroke-linecap:butt;stroke-linejoin:miter;stroke-opacity:1;filter:url(#filter3385)"/>
    </g>
  </g>
</svg>
