<?xml version="1.0" encoding="UTF-8"?>
<svg viewBox="0 0 269.58859 254.20515" xmlns="http://www.w3.org/2000/svg">
 <defs>
  <linearGradient id="f" x1="360.19" x2="352.67" y1="186.73" y2="477.66" gradientTransform="matrix(2.4862 -2.3006 2.6156 2.4862 -1436.2 -414.48)" gradientUnits="userSpaceOnUse">
   <stop stop-color="#808080" offset="0"/>
   <stop stop-color="#808080" stop-opacity="0" offset="1"/>
  </linearGradient>
  <linearGradient id="e" x2="0" y1="603.22" y2="302.51" gradientTransform="matrix(2.4862 -2.4531 2.4531 2.4862 -1378.2 -456.69)" gradientUnits="userSpaceOnUse">
   <stop stop-color="#fff9f9" offset="0"/>
   <stop stop-opacity=".749" offset=".3251"/>
   <stop stop-opacity=".498" offset=".7513"/>
   <stop stop-opacity="0" offset="1"/>
  </linearGradient>
  <linearGradient id="d" x2="0" y1="302.51" y2="603.22" gradientTransform="matrix(2.4862 -2.4531 2.4531 2.4862 -1378.2 -456.69)" gradientUnits="userSpaceOnUse">
   <stop offset="0"/>
   <stop stop-opacity="0" offset="1"/>
  </linearGradient>
  <linearGradient id="a" x1="-68.831" x2="671.6" gradientTransform="matrix(.65303 -1.0093e-8 1.0093e-8 .65303 -48.819 -153.52)" gradientUnits="userSpaceOnUse">
   <stop stop-color="#808080" offset="0"/>
   <stop stop-color="#efefef" stop-opacity=".8078" offset=".5452"/>
   <stop stop-color="#808080" stop-opacity=".6863" offset="1"/>
   <stop stop-color="#808080" stop-opacity=".498" offset="1"/>
  </linearGradient>
  <linearGradient id="c" x1="325.77" x2="459.53" gradientTransform="matrix(2.2828 -2.5441e-8 3.4593e-8 2.9817 -701.6 -683.39)" gradientUnits="userSpaceOnUse">
   <stop offset="0"/>
   <stop stop-color="#c6c6c6" stop-opacity=".749" offset=".414"/>
   <stop stop-opacity=".498" offset=".7203"/>
   <stop stop-color="#fff" stop-opacity="0" offset="1"/>
  </linearGradient>
  <radialGradient id="b" cx="324.94" cy="656.46" r="247.54" gradientTransform="matrix(.93945 -7.8612e-8 2.8671e-8 .36248 -141.89 -98.644)" gradientUnits="userSpaceOnUse">
   <stop stop-color="#ccfc1c" offset="0"/>
   <stop stop-color="#ccfc1c" stop-opacity="0" offset="1"/>
  </radialGradient>
 </defs>
 <g transform="translate(25.515)">
  <path d="m242.07 122.07c0.0198 66.308-53.728 120.07-120.04 120.07s-120.06-53.764-120.04-120.07c-0.0198-66.308 53.728-120.07 120.04-120.07s120.06 53.764 120.04 120.07z" fill="#fff" stroke="#000" stroke-linecap="round" stroke-linejoin="round" stroke-width="4"/>
  <path d="m122.19 62.964c-55.318 1.1211-79.188 37.344-79.188 81.812 0 19.851 10.824 38.075 25.156 52.25-30.524-12.934-54.598-38.139-66.031-69.406 2.9079 63.683 55.509 114.5 119.91 114.5 66.26 1e-5 120.03-53.771 120.03-120.03 0-14.468-2.5522-28.34-7.25-41.188 0.0841 1.8428 0.15625 3.699 0.15625 5.5625 0 32.537-12.988 62.062-34.031 83.688 3.6058-7.988 5.75-16.521 5.75-25.375 0-45.174-24.621-81.812-81.844-81.812-0.89395 0-1.7782-0.0178-2.6562 0z" fill-opacity=".3137"/>
  <path d="m130.22 242.64c0 9.0908 14.665 9.3814 32.735 9.3814s32.735 0.69349 32.735-9.3814c0-17.716-14.665-32.094-32.735-32.094s-32.735 14.378-32.735 32.094z" fill="#333" stroke="#000" stroke-linecap="round" stroke-linejoin="round" stroke-width="4"/>
  <path d="m175.54 251.42c0-16.368-9.4428-26.44-9.4428-26.44s3.7771 13.849 3.1476 26.44h6.2952z" fill-opacity=".3137" fill-rule="evenodd" stroke="#000" stroke-linejoin="round" stroke-width="4"/>
  <path transform="matrix(.14302 .14111 -.15046 .1525 78.288 78.052)" d="m598.01 384.65c0 35.147-121.21 63.64-270.72 63.64s-270.72-28.492-270.72-63.64 121.21-63.64 270.72-63.64 270.72 28.492 270.72 63.64z" fill="url(#f)" stroke="#000" stroke-width="1.2906"/>
  <path transform="matrix(.13309 .13132 -.13132 .13309 74.636 88.249)" d="m598.01 384.65c0 35.147-121.21 63.64-270.72 63.64s-270.72-28.492-270.72-63.64 121.21-63.64 270.72-63.64 270.72 28.492 270.72 63.64z" fill="url(#e)" stroke="url(#d)" stroke-width="1.3971"/>
  <path d="m31.317 152.76c27.302 15.943 46.674 30.324 65.417 65.494-9.1219 1.5946-64.381-48.377-65.417-65.494z" fill="url(#b)"/>
  <path d="m27.937 145.08c-6.8649 17.231 62.954 86.488 78.166 75.956-79.218 78.749-145.82-3.6628-78.166-75.956z" fill="url(#a)"/>
  <path d="m71.329 167.99c4.3036 3.8737 8.309 7.9634 12.175 12.154 14.355-16.095 1.346-25.373-12.175-12.154z" fill="url(#c)"/>
  <g transform="matrix(.77677 .62979 -.62979 .77677 110.12 -47.466)">
   <path d="m119.38 49.776c-30.129 0.61059-50.932 11.653-63.625 28.75-24.064-2.5878-44.062 23.625-44.062 23.625s18.891 9.4463 32.062 1.5312c-2.3992 8.7117-3.5625 18.106-3.5625 27.906 0 45.174 56.126 81.844 81.844 81.844 26.717 0 81.844-36.669 81.844-81.844 0-9.8003-1.1639-19.195-3.5625-27.906 13.171 7.9151 32.031-1.5312 32.031-1.5312s-19.971-26.205-44.031-23.625c-13.062-17.595-34.708-28.75-66.281-28.75-0.89395 0-1.7782-0.0178-2.6562 0z" fill="#333" stroke="#000" stroke-linecap="round" stroke-linejoin="round" stroke-width="4"/>
   <path d="m118.41 119.6c4e-3 12.519-10.144 22.67-22.663 22.67s-22.667-10.151-22.663-22.67 10.144-22.67 22.663-22.67 22.666 10.151 22.663 22.67z" fill="#fff" stroke="#000" stroke-linecap="round" stroke-linejoin="round" stroke-width="4"/>
   <path d="m171.14 119.6c4e-3 12.519-10.144 22.67-22.663 22.67s-22.667-10.151-22.663-22.67 10.144-22.67 22.663-22.67 22.666 10.151 22.663 22.67z" fill="#fff" stroke="#000" stroke-linecap="round" stroke-linejoin="round" stroke-width="4"/>
   <path d="m150.99 123.6c1e-3 4.173-3.3813 7.5565-7.5542 7.5565s-7.5555-3.3835-7.5542-7.5565 3.3813-7.5565 7.5542-7.5565 7.5555 3.3835 7.5542 7.5565z"/>
   <path d="m108.96 123.6c1e-3 4.173-3.3813 7.5565-7.5542 7.5565s-7.5555-3.3835-7.5542-7.5565 3.3813-7.5565 7.5542-7.5565 7.5555 3.3835 7.5542 7.5565z"/>
   <path d="m200.59 104.78-1.875 2.6562c0.24888 3.0755 0.34375 6.2026 0.34375 9.375 0 45.174-55.127 81.844-81.844 81.844-20.706 2e-5 -61.097-23.756-76.062-56.594 7.6158 40.246 57.172 71.375 80.875 71.375 26.717 0 81.844-36.669 81.844-81.844 0-9.3916-1.0754-18.41-3.2812-26.812z" fill-opacity=".3137"/>
   <path d="m138.63 184.23c-2.2927 3.9731-6.5002 5.8386-9.3968 4.1663s-3.3847-6.2489-1.0903-10.221 6.5003-5.8386 9.3968-4.1663 3.3847 6.2489 1.0903 10.221z"/>
   <path d="m105.9 184.23c2.2927 3.9731 6.5002 5.8386 9.3968 4.1663s3.3847-6.2489 1.0903-10.221-6.5003-5.8386-9.3968-4.1663-3.3847 6.2489-1.0903 10.221z"/>
  </g>
  <path d="m27.639 146.22c-6.8649 17.231 62.954 86.488 78.166 75.956-79.218 78.749-145.82-3.6628-78.166-75.956z" fill="url(#a)"/>
  <g transform="matrix(.61885 -.78551 .78551 .61885 -230.35 72.165)" stroke="#000" stroke-linejoin="round" stroke-width="4">
   <path d="m111.22 242.64c0 9.0908-14.665 9.3814-32.735 9.3814s-32.735 0.69349-32.735-9.3814c0-17.716 14.665-32.094 32.735-32.094s32.735 14.378 32.735 32.094z" fill="#333" stroke-linecap="round"/>
   <path d="m69.894 251.42c0-16.368 9.4428-26.44 9.4428-26.44s-3.7771 13.849-3.1476 26.44h-6.2952z" fill-opacity=".3137" fill-rule="evenodd"/>
  </g>
 </g>
</svg>
